<?xml version="1.0" standalone="no"?>
<!DOCTYPE svg PUBLIC "-//W3C//DTD SVG 20010904//EN"
 "http://www.w3.org/TR/2001/REC-SVG-20010904/DTD/svg10.dtd">
<svg version="1.0" xmlns="http://www.w3.org/2000/svg"
 width="260.000000pt" height="260.000000pt" viewBox="0 0 260.000000 260.000000"
 preserveAspectRatio="xMidYMid meet">
<metadata>
Created by potrace 1.11, written by Peter Selinger 2001-2013
</metadata>
<g transform="translate(0.000000,260.000000) scale(0.100000,-0.100000)"
fill="#000000" stroke="none">
<path d="M203 2582 c-100 -35 -171 -115 -193 -216 -8 -36 -10 -361 -8 -1096
l3 -1045 28 -57 c32 -64 80 -111 146 -142 46 -21 49 -21 1121 -21 1072 0 1075
0 1121 21 66 31 114 78 146 142 l28 57 0 1075 c0 1072 0 1075 -21 1121 -31 66
-78 114 -142 146 l-57 28 -1060 2 c-997 2 -1063 1 -1112 -15z m343 -201 c90
-40 157 -141 158 -239 l1 -54 346 -253 346 -254 66 22 67 22 0 97 0 97 -44 45
c-176 175 -15 477 227 426 198 -42 269 -293 121 -429 l-44 -41 0 -99 0 -99 68
-21 c265 -80 451 -373 413 -651 -21 -155 -67 -247 -180 -361 -122 -122 -261
-179 -436 -179 -101 0 -204 24 -287 66 l-51 26 -88 -88 c-85 -85 -89 -90 -89
-133 0 -93 -68 -176 -166 -200 -138 -35 -274 72 -274 214 0 125 115 234 236
223 31 -2 42 6 118 81 l84 83 -34 72 c-92 193 -79 424 34 594 20 31 40 62 44
69 5 7 -101 87 -305 230 -171 121 -317 222 -324 226 -6 4 -37 1 -68 -7 -232
-61 -427 227 -282 416 91 118 217 154 343 99z"/>
<path d="M1589 1267 c-221 -62 -253 -366 -50 -469 64 -33 158 -38 219 -13 47
20 108 78 134 129 25 48 27 146 4 201 -21 49 -78 110 -127 135 -49 25 -124 32
-180 17z"/>
</g>
</svg>
