<svg xmlns="http://www.w3.org/2000/svg" width="458" height="408" viewBox="0 0 458 408">
  <metadata><?xpacket begin="﻿" id="W5M0MpCehiHzreSzNTczkc9d"?>
<x:xmpmeta xmlns:x="adobe:ns:meta/" x:xmptk="Adobe XMP Core 5.6-c138 79.159824, 2016/09/14-01:09:01        ">
   <rdf:RDF xmlns:rdf="http://www.w3.org/1999/02/22-rdf-syntax-ns#">
      <rdf:Description rdf:about=""/>
   </rdf:RDF>
</x:xmpmeta>
                                                                                                    
                                                                                                    
                                                                                                    
                                                                                                    
                                                                                                    
                                                                                                    
                                                                                                    
                                                                                                    
                                                                                                    
                                                                                                    
                                                                                                    
                                                                                                    
                                                                                                    
                                                                                                    
                                                                                                    
                                                                                                    
                                                                                                    
                                                                                                    
                                                                                                    
                                                                                                    
                           
<?xpacket end="w"?></metadata>
<defs>
    <style>
      .cls-1 {
        fill: #d18f30;
      }

      .cls-1, .cls-2, .cls-3, .cls-4, .cls-6, .cls-7 {
        fill-rule: evenodd;
      }

      .cls-2 {
        fill: #a57127;
      }

      .cls-3 {
        fill: #dea24c;
      }

      .cls-4 {
        fill: #925e15;
      }

      .cls-5, .cls-7 {
        fill: #744e19;
      }

      .cls-6 {
        fill: none;
        stroke: #744e19;
        stroke-linecap: round;
        stroke-width: 8px;
      }
    </style>
  </defs>
  <path id="Rectangle_13_copy_6" data-name="Rectangle 13 copy 6" class="cls-1" d="M396,339L270,377l38,39,125-38Z" transform="translate(-269 -335)"/>
  <path id="Rectangle_13_copy_2" data-name="Rectangle 13 copy 2" class="cls-2" d="M307,415.426L432,376.79V555.358L307,593.994V415.426Z" transform="translate(-269 -335)"/>
  <path id="Rectangle_13_copy_4" data-name="Rectangle 13 copy 4" class="cls-3" d="M475,335l252,45-45,43L431,378Z" transform="translate(-269 -335)"/>
  <path id="Color_Fill_1" data-name="Color Fill 1" class="cls-4" d="M683,422L431.529,376.731V555.015L683,600.284V422Z" transform="translate(-269 -335)"/>
  <rect id="Rounded_Rectangle_2_copy" data-name="Rounded Rectangle 2 copy" class="cls-5" x="71" y="222" width="8" height="93" rx="4" ry="4"/>
  <path class="cls-1" d="M307,416l251.471,45.329v217L307,633V416Z" transform="translate(-269 -335)"/>
  <path class="cls-6" d="M324,626a34,34,0,0,0-34,34v41" transform="translate(-269 -335)"/>
  <path id="Ellipse_5_copy" data-name="Ellipse 5 copy" class="cls-6" d="M537,664a34,34,0,0,0-34,34v41" transform="translate(-269 -335)"/>
  <path id="Rectangle_13_copy_3" data-name="Rectangle 13 copy 3" class="cls-3" d="M307,416l251.471,45.329L520,521,269,476Z" transform="translate(-269 -335)"/>
  <path id="Rectangle_13_copy" data-name="Rectangle 13 copy" class="cls-2" d="M683,422.583L558,461.269V677.985L683,639.3V422.583Z" transform="translate(-269 -335)"/>
  <rect id="Rounded_Rectangle_2" data-name="Rounded Rectangle 2" class="cls-5" x="352" y="248" width="8" height="93" rx="4" ry="4"/>
  <path id="Rectangle_13_copy_5" data-name="Rectangle 13 copy 5" class="cls-1" d="M683,422.583L558,461.269,597,513l120-44Z" transform="translate(-269 -335)"/>
  <path class="cls-7" d="M483.441,556.8c6.467,1.166,11.71,7.931,11.71,15.111s-5.243,12.055-11.71,10.889-11.71-7.931-11.71-15.111S476.974,555.638,483.441,556.8Z" transform="translate(-269 -335)"/>
  <path id="Ellipse_3_copy" data-name="Ellipse 3 copy" class="cls-7" d="M381.125,538.361c6.467,1.166,11.71,7.931,11.71,15.111s-5.243,12.055-11.71,10.889-11.71-7.931-11.71-15.11S374.658,537.2,381.125,538.361Z" transform="translate(-269 -335)"/>
  <path class="cls-6" d="M407.863,601.181c4.188-9.839,13.746-15.522,24.872-13.517s20.685,11.135,24.873,22.484" transform="translate(-269 -335)"/>
</svg>
